Coordinates
version=1
nRows=16
nColumns=32
inDegrees=yes

Units are S.I. units (second, meters, Newtons, ...)
Angles are in degrees.

endheader
time	lower_torso_RX	lower_torso_RY	lower_torso_RZ	lower_torso_TX	lower_torso_TY	lower_torso_TZ	lumbar_pitch	lumbar_roll	lumbar_yaw	hip_flex_r	hip_add_r	hip_rot_r	knee_flex_r	tib_pat_r_r3	tib_pat_r_tx	tib_pat_r_ty	tib_pat_r_tz	ankle_flex_r	subt_angle_r	toe_angle_r	hip_flex_l	hip_add_l	hip_rot_l	knee_flex_l	tib_pat_l_r3	tib_pat_l_tx	tib_pat_l_ty	tib_pat_l_tz	ankle_flex_l	subt_angle_l	toe_angle_l
      4.18000000	      2.77936715	     -6.47798465	    -22.92981185	      0.02913477	      0.69018261	     -0.22184121	      0.00000000	      0.00000000	      0.00000000	     40.80233288	     -4.07693798	     12.71001994	     67.85470224	     12.40505817	      0.02178564	      0.00827515	      0.00073425	     -9.33061494	     17.55466216	      0.00000000	     28.90983189	      8.49880648	     18.65430911	     21.39414950	      4.77750997	      0.02988683	     -0.00092939	     -0.00343574	     10.61612338	     -1.63605867	      0.00000000
      4.19000000	      2.59276075	     -5.91179747	    -22.97708156	      0.03544715	      0.69063117	     -0.22224926	      0.00000000	      0.00000000	      0.00000000	     42.56275362	     -4.28409156	     11.97258482	     68.90830760	     12.51643710	      0.02152253	      0.00829636	      0.00073425	     -7.58453764	     17.45108205	      0.00000000	     27.85725290	      8.29991603	     19.79726936	     20.50336054	      4.50898227	      0.03002638	     -0.00098382	     -0.00343574	     11.21611612	     -1.11037131	      0.00000000
      4.20000000	      2.51676804	     -5.12019377	    -22.62198357	      0.04098616	      0.69150274	     -0.22278244	      0.00000000	      0.00000000	      0.00000000	     43.82400203	     -4.18761723	     11.87777219	     69.67168497	     12.59527409	      0.02131612	      0.00831701	      0.00073425	     -7.21800897	     17.41326420	      0.00000000	     27.00436014	      8.22708844	     19.87307761	     20.54592898	      4.52191194	      0.03002910	     -0.00098327	     -0.00343574	     11.20979275	     -1.03748658	      0.00000000
      4.21000000	      2.35004343	     -4.94090687	    -22.23097577	      0.04625352	      0.69210768	     -0.22257997	      0.00000000	      0.00000000	      0.00000000	     45.48797128	     -4.25857384	     11.60046443	     70.78368478	     12.70742391	      0.02101301	      0.00834978	      0.00073425	     -6.49493103	     17.08507916	      0.00000000	     26.03292821	      8.04593587	     20.20028302	     20.51279566	      4.51188604	      0.03003169	     -0.00098535	     -0.00343574	     11.18818366	     -0.79311475	      0.00000000
      4.22000000	      2.71593707	     -4.44084146	    -22.55829802	      0.05148728	      0.69214134	     -0.22296186	      0.00000000	      0.00000000	      0.00000000	     47.85458149	     -5.22363327	     10.97150129	     71.85057861	     12.81159147	      0.02071721	      0.00836804	      0.00073425	     -4.07434350	     16.12198769	      0.00000000	     25.38134372	      8.28943191	     21.02398413	     19.41044597	      4.17326549	      0.03021245	     -0.00102927	     -0.00343574	     11.40376620	     -0.22666761	      0.00000000
      4.23000000	      2.65979156	     -3.54247734	    -22.19352775	      0.05734210	      0.69293102	     -0.22334850	      0.00000000	      0.00000000	      0.00000000	     49.10132679	     -5.24497947	     10.96122818	     72.50112406	     12.87338145	      0.02053284	      0.00838487	      0.00073425	     -3.73899869	     15.94864880	      0.00000000	     24.52812404	      8.16966046	     21.03962794	     19.50319677	      4.20198777	      0.03019480	     -0.00102555	     -0.00343574	     11.30579597	     -0.15333559	      0.00000000
      4.24000000	      2.56473619	     -3.04587325	    -21.82121926	      0.06313176	      0.69333785	     -0.22309194	      0.00000000	      0.00000000	      0.00000000	     50.67292131	     -5.44694895	     10.61835354	     73.44317540	     12.96076465	      0.02024250	      0.00839130	      0.00073425	     -2.96282953	     15.36853319	      0.00000000	     23.57379331	      7.99091708	     21.34128244	     19.48843940	      4.19752563	      0.03020139	     -0.00105405	     -0.00343574	     11.20816740	      0.10995766	      0.00000000
      4.25000000	      2.93465514	     -2.11569472	    -21.86114138	      0.06910447	      0.69386609	     -0.22353467	      0.00000000	      0.00000000	      0.00000000	     52.27721575	     -6.64726384	      9.68933185	     73.80619935	     12.99442098	      0.02014153	      0.00840229	      0.00073425	     -0.99571788	     13.72601737	      0.00000000	     22.65044413	      8.19434406	     22.37177674	     18.64012907	      3.93204770	      0.03033654	     -0.00106097	     -0.00343574	     11.17406447	      0.90483921	      0.00000000
      4.26000000	      2.85788467	     -1.24425741	    -21.50342485	      0.07509198	      0.69450800	     -0.22397273	      0.00000000	      0.00000000	      0.00000000	     53.36333867	     -6.73924073	      9.73969686	     74.00600851	     13.01255780	      0.02007961	      0.00840516	      0.00073425	     -0.83223922	     13.51434721	      0.00000000	     21.80533245	      8.04729173	     22.43407422	     18.74379703	      3.96474808	      0.03032199	     -0.00105624	     -0.00343574	     11.11701076	      0.99451295	      0.00000000
      4.27000000	      2.88649744	     -0.85367609	    -21.08376222	      0.08132544	      0.69507938	     -0.22338819	      0.00000000	      0.00000000	      0.00000000	     54.55376412	     -7.12641687	      9.48469579	     74.16441561	     13.02682879	      0.02002330	      0.00844903	      0.00073425	     -0.28872327	     12.80970677	      0.00000000	     20.69481670	      7.96047778	     22.90941637	     18.59012997	      3.91641692	      0.03035155	     -0.00110283	     -0.00343574	     11.01968065	      1.41942776	      0.00000000
      4.28000000	      3.18667503	      0.26197675	    -20.61064000	      0.08826994	      0.69639404	     -0.22423168	      0.00000000	      0.00000000	      0.00000000	     54.86020327	     -8.03448382	      9.03670966	     73.35745220	     12.95340846	      0.02028077	      0.00839575	      0.00073425	      0.70871687	     11.42120573	      0.00000000	     19.00025639	      7.94818677	     23.73665600	     17.39943936	      3.53455795	      0.03053596	     -0.00111165	     -0.00343574	     11.12007539	      2.17667302	      0.00000000
      4.29000000	      3.09864017	      0.74493778	    -20.24212211	      0.09318312	      0.69679717	     -0.22398425	      0.00000000	      0.00000000	      0.00000000	     55.87287047	     -8.05350698	      9.19148065	     72.82735023	     12.90458660	      0.02042935	      0.00838840	      0.00073425	      0.78265694	     11.39738890	      0.00000000	     18.29968047	      7.81845776	     23.71079082	     17.69184136	      3.62925452	      0.03048802	     -0.00109828	     -0.00343574	     11.08994152	      2.17885607	      0.00000000
      4.30000000	      3.03176482	      1.89965462	    -20.03592483	      0.09925576	      0.69699946	     -0.22412088	      0.00000000	      0.00000000	      0.00000000	     56.65470922	     -8.05330108	      9.39875519	     72.24979542	     12.84957617	      0.02061128	      0.00837390	      0.00073425	      0.74718169	     11.34705379	      0.00000000	     17.58681538	      7.52358069	     23.92574497	     17.77764602	      3.65688792	      0.03046704	     -0.00109781	     -0.00343574	     10.98757342	      2.35668199	      0.00000000
      4.31000000	      2.99475233	      2.56399621	    -19.90836165	      0.10589562	      0.69748864	     -0.22392197	      0.00000000	      0.00000000	      0.00000000	     57.16979799	     -8.13745354	      9.56047870	     70.74451278	     12.70336317	      0.02102533	      0.00834551	      0.00073425	      0.69515581	     11.29149611	      0.00000000	     16.82260122	      7.34225763	     24.54256663	     17.73589707	      3.64344159	      0.03048216	     -0.00109663	     -0.00343574	     10.89950591	      2.79716135	      0.00000000
      4.32000000	      2.93175318	      3.49498800	    -19.67712068	      0.11222063	      0.69780464	     -0.22377116	      0.00000000	      0.00000000	      0.00000000	     57.60408359	     -8.14915681	      9.83209415	     69.38365843	     12.56578284	      0.02139130	      0.00831626	      0.00073425	      0.55190300	     11.35440159	      0.00000000	     15.98334657	      7.03535791	     24.98389577	     17.68592112	      3.62717800	      0.03049069	     -0.00110082	     -0.00343574	     10.89305419	      3.10873459	      0.00000000
      4.33000000	      2.29560355	      4.33572924	    -18.43760997	      0.11914297	      0.69946997	     -0.22318960	      0.00000000	      0.00000000	      0.00000000	     56.52603693	     -7.76594423	      9.33922438	     67.18779216	     12.33279161	      0.02195353	      0.00824897	      0.00073425	     -0.47584209	     10.59770009	      0.00000000	     13.22623775	      5.73558217	     26.09203963	     15.89771706	      3.03672048	      0.03076764	     -0.00116980	     -0.00343574	     10.81956739	      4.01153345	      0.00000000
